<?xml version="1.0" encoding="utf-8"?>
<!-- Generator: Adobe Illustrator 22.0.1, SVG Export Plug-In . SVG Version: 6.00 Build 0)  -->
<svg version="1.1" id="Layer_1" xmlns="http://www.w3.org/2000/svg" xmlns:xlink="http://www.w3.org/1999/xlink" x="0px" y="0px"
	 viewBox="0 0 26.7 29" style="enable-background:new 0 0 26.7 29;" xml:space="preserve">
<style type="text/css">
	.st0{filter:url(#filter-1);}
	.st1{fill:#FFFFFF;}
</style>
<filter  filterUnits="objectBoundingBox" height="200%" id="filter-1" width="200%" x="-50%" y="-50%">
	<feOffset  dx="0" dy="2" in="SourceAlpha" result="shadowOffsetOuter1"></feOffset>
	<feGaussianBlur  in="shadowOffsetOuter1" result="shadowBlurOuter1" stdDeviation="2"></feGaussianBlur>
	
		<feColorMatrix  in="shadowBlurOuter1" result="shadowMatrixOuter1" type="matrix" values="0 0 0 0 0   0 0 0 0 0   0 0 0 0 0  0 0 0 0.05 0">
		</feColorMatrix>
	<feMerge>
		<feMergeNode  in="shadowMatrixOuter1"></feMergeNode>
		<feMergeNode  in="SourceGraphic"></feMergeNode>
	</feMerge>
</filter>
<title>ic_home</title>
<desc>Created with Sketch.</desc>
<g id="OPt-2">
	<g id="prog2_pro3_Mobile-Portrait_opt2-Copy-2" transform="translate(-10.000000, -15.000000)">
		<g id="nav">
			<g id="Group-6" class="st0">
				<g id="ic_home_1_" transform="translate(14.000000, 17.000000)">
					<g id="Group_1_" transform="translate(9.600000, 12.000000) scale(-1, 1) translate(-9.600000, -12.000000) ">
						<path id="Shape_5_" class="st1" d="M1.8,6.9l0.9,0.7l1.4,1.1c0.2-1,0.8-1.8,1.5-2.3L2.9,4.2L3.7,3C4.1,2.6,4,1.9,3.5,1.6
							L1.5,4.3C1.1,4.7,1,5.2,1.1,5.7C1.2,6.2,1.4,6.6,1.8,6.9L1.8,6.9z"/>
						<path id="Shape_4_" class="st1" d="M10.6,16.6c-3.1-1.6-5.8-2.1-6.5-1c-0.6,0.9,0.4,2.6,2.3,4.4l-1.8,2.9H3.3
							c-0.6,0-1,0.5-1,1.1h1.6H6l0.7-1.1l1-1.7l0.4-0.7c-0.1-0.2-0.2-0.5-0.2-0.8c0-0.9,0.7-1.6,1.6-1.6c0,0,0.1,0,0.1,0L10.6,16.6
							L10.6,16.6z"/>
						<path id="Shape_3_" class="st1" d="M19.2,6.5c-0.2-0.8-0.8-1.4-1.7-1.4c-0.2,0-0.5,0-0.7,0.1c-0.6,0.3-1,0.9-1,1.6V15
							c0,0.6-0.5,1.1-1,1.1c-0.4,0-0.8-0.3-0.9-0.6c0,0,0-0.1,0-0.1l-1-2.4l1.9-6.5c0,0,0,0,0,0c0-0.1,0-0.1,0.1-0.2
							c0.7-2.5-0.5-5.2-2.9-6.3L7.5,1.6C6.9,1.8,6.6,2.4,6.8,2.9L8,2.5C8.4,2.3,8.9,2.6,9,3C9.2,3.5,9,4,8.5,4.1L7.4,4.6
							c0.2,0.5,0.8,0.8,1.3,0.6l1.2-0.5c0.1,0.5-0.2,1-0.7,1.2L6.9,6.8c-1,0.4-1.7,1.4-1.7,2.6c0,0,0,0.1,0,0.1c0,0,0,0.1,0,0.1
							c0,0,0,0,0,0H1.5V8.1c0-0.4-0.5-0.7-0.8-0.9L0.4,7v3.5c0,1,0.8,1.8,1.8,1.8h4.1c0.4,0,0.7,0,1.1,0.1c0,0,0,0,0,0
							c0,0,0,0,0.1,0c0,0,0,0,0,0c1.8,0.5,3.2,2.1,3.4,4c0,0,0,0.1,0,0.1c0,0.1,0,0.2,0,0.3c0,1.1-0.4,2.1-1,2.9
							c0,0.1-0.1,0.1-0.1,0.2c-0.1,0.2-0.2,0.4-0.2,0.7c0,0.6,0.5,1.2,1.1,1.2c0.2,0,0.4-0.1,0.6-0.2l2.3-1.4
							c0.3,0.2,0.5,0.5,0.5,0.9c0,0.3-0.1,0.5-0.3,0.7l-1,1.1h-1.2h0h-0.1c-0.6,0-1,0.5-1,1.1h2.1h0h1.3c0-1,0.8-1.8,1.8-1.8v-3.1
							c-0.8-0.2-1.4-0.9-1.4-1.8c0,0,0-0.1,0-0.1c0.1,0,0.2,0,0.3,0c0.4,0,0.8-0.1,1.1-0.3c0.6-0.4,1-1.1,1-1.9V6.8
							c0-0.4,0.3-0.7,0.7-0.7c0.4,0,0.7,0.3,0.7,0.7c-0.5,0.3-0.8,0.9-0.8,1.5c0,1,0.8,1.8,1.8,1.8V6.8C19.3,6.7,19.2,6.6,19.2,6.5
							L19.2,6.5z"/>
					</g>
				</g>
			</g>
		</g>
	</g>
</g>
</svg>
